<?xml version="1.0" encoding="UTF-8" standalone="no"?>
<!DOCTYPE svg PUBLIC "-//W3C//DTD SVG 1.1//EN" "http://www.w3.org/Graphics/SVG/1.1/DTD/svg11.dtd">
<svg version="1.1" xmlns="http://www.w3.org/2000/svg" xmlns:xlink="http://www.w3.org/1999/xlink" preserveAspectRatio="xMidYMid meet" viewBox="0 0 640 640" width="640" height="640"><defs><path d="M869.87 -194.2C701.42 -52.9 596.14 35.41 554.03 70.74C526.38 93.94 491.44 106.65 455.35 106.65C384.92 106.65 255.92 106.65 192.09 106.65C142.99 106.65 103.19 146.45 103.19 195.55C103.19 262.37 103.19 389.08 103.19 459.69C103.19 498.33 134.52 529.65 173.15 529.65C246.12 529.65 395.08 529.65 468.05 529.65C506.75 529.65 538.21 498.42 538.49 459.72C539.22 361.09 540.12 290.86 541.19 249.02C543.34 165.45 487.59 146.65 419.02 222.72C373.31 273.43 348.88 300.63 345.75 304.33" id="ajJkEbMlJ"></path><path d="M385.42 384.56C340.46 434.44 276.27 449.97 242.17 419.24C208.07 388.5 216.89 323.05 261.84 273.17C306.8 223.3 370.99 207.76 405.09 238.5C439.19 269.23 430.37 334.68 385.42 384.56Z" id="c20ZwjeZZf"></path><path d="M367.61 223.01L371.16 223.39L374.64 223.93L378.06 224.64L381.41 225.51L384.69 226.55L387.88 227.75L390.99 229.12L394 230.65L396.93 232.36L399.75 234.23L402.48 236.28L405.09 238.5L405.09 238.5L345.75 304.33L286.28 250.72L286.95 250.21L290.73 247.46L294.55 244.86L298.4 242.39L302.27 240.06L306.17 237.88L310.08 235.83L314 233.93L317.93 232.18L321.87 230.57L325.8 229.1L329.72 227.79L333.64 226.62L337.54 225.6L341.42 224.74L345.27 224.03L349.09 223.47L352.88 223.06L356.63 222.81L360.34 222.72L364 222.78L367.61 223.01Z" id="b1Tf9y7m23"></path><path d="M409.88 243.36L412.04 245.98L414.04 248.71L415.88 251.55L417.56 254.5L419.08 257.55L420.45 260.7L421.67 263.94L422.72 267.27L423.63 270.69L424.37 274.18L424.97 277.74L425.41 281.37L425.7 285.07L425.84 288.83L425.83 292.64L425.67 296.5L425.36 300.4L424.9 304.35L424.29 308.33L423.54 312.35L422.63 316.39L421.58 320.45L420.39 324.53L419.05 328.62L417.57 332.72L415.94 336.82L414.17 340.92L412.25 345.02L410.2 349.1L408 353.17L405.66 357.21L405.22 357.93L345.75 304.33L405.09 238.5L407.57 240.87L409.88 243.36Z" id="f5LbTbgMUB"></path><path d="M384.66 281.3C379.04 287.53 369.43 288.03 363.2 282.41C356.97 276.8 356.47 267.18 362.08 260.95C367.7 254.73 377.31 254.23 383.54 259.84C389.77 265.46 390.27 275.07 384.66 281.3Z" id="i1EY4xyHTv"></path></defs><g><g><g><g><use xlink:href="#ajJkEbMlJ" opacity="1" fill-opacity="0" stroke="#000000" stroke-width="15" stroke-opacity="1"></use></g></g><g><use xlink:href="#c20ZwjeZZf" opacity="1" fill="#ffffff" fill-opacity="1"></use><g><use xlink:href="#c20ZwjeZZf" opacity="1" fill-opacity="0" stroke="#000000" stroke-width="15" stroke-opacity="1"></use></g></g><g><use xlink:href="#b1Tf9y7m23" opacity="1" fill="#00ff00" fill-opacity="1"></use><g><use xlink:href="#b1Tf9y7m23" opacity="1" fill-opacity="0" stroke="#000000" stroke-width="15" stroke-opacity="1"></use></g></g><g><g><use xlink:href="#f5LbTbgMUB" opacity="1" fill-opacity="0" stroke="#000000" stroke-width="15" stroke-opacity="1"></use></g></g><g><use xlink:href="#i1EY4xyHTv" opacity="1" fill="#ffffff" fill-opacity="1"></use><g><use xlink:href="#i1EY4xyHTv" opacity="1" fill-opacity="0" stroke="#000000" stroke-width="15" stroke-opacity="1"></use></g></g></g></g></svg>